# Tiled2Unity generated file. Do not modify by hand.
# Wavefront file for 'GameMap1_0_mesh_0023.obj'

# Vertices (Count = 32)
v -14752 -14944 0
v -14784 -14944 0
v -14784 -14912 0
v -14752 -14912 0
v -14784 -14944 0
v -14816 -14944 0
v -14816 -14912 0
v -14784 -14912 0
v -14752 -14976 0
v -14784 -14976 0
v -14784 -14944 0
v -14752 -14944 0
v -14784 -14976 0
v -14816 -14976 0
v -14816 -14944 0
v -14784 -14944 0
v -14752 -15008 0
v -14784 -15008 0
v -14784 -14976 0
v -14752 -14976 0
v -14784 -15008 0
v -14816 -15008 0
v -14816 -14976 0
v -14784 -14976 0
v -14752 -15040 0
v -14784 -15040 0
v -14784 -15008 0
v -14752 -15008 0
v -14784 -15040 0
v -14816 -15040 0
v -14816 -15008 0
v -14784 -15008 0

# Texture cooridinates (Count = 9)
vt 0.4444444 0.8796992
vt 0.5333334 0.8796992
vt 0.5333334 1
vt 0.4444444 1
vt 0.6222222 0.8796992
vt 0.6222222 1
vt 0.4444444 0.7593985
vt 0.5333334 0.7593985
vt 0.6222222 0.7593985

# Normal
vn 0 0 -1

# Mesh description
g GameMap1_0_mesh_0023

# Faces
f 1/1/1 2/2/1 3/3/1 4/4/1
f 5/2/1 6/5/1 7/6/1 8/3/1
f 9/7/1 10/8/1 11/2/1 12/1/1
f 13/8/1 14/9/1 15/5/1 16/2/1
f 17/1/1 18/2/1 19/3/1 20/4/1
f 21/2/1 22/5/1 23/6/1 24/3/1
f 25/7/1 26/8/1 27/2/1 28/1/1
f 29/8/1 30/9/1 31/5/1 32/2/1

