# Tiled2Unity generated file. Do not modify by hand.
# Wavefront file for 'GameMap1_0_mesh_0032.obj'

# Vertices (Count = 124)
v -13440 -14208 0
v -13472 -14208 0
v -13472 -14176 0
v -13440 -14176 0
v -13504 -14304 0
v -13536 -14304 0
v -13536 -14272 0
v -13504 -14272 0
v -13536 -14304 0
v -13568 -14304 0
v -13568 -14272 0
v -13536 -14272 0
v -13952 -14368 0
v -13984 -14368 0
v -13984 -14336 0
v -13952 -14336 0
v -14304 -14464 0
v -14336 -14464 0
v -14336 -14432 0
v -14304 -14432 0
v -14336 -14464 0
v -14368 -14464 0
v -14368 -14432 0
v -14336 -14432 0
v -14304 -14496 0
v -14336 -14496 0
v -14336 -14464 0
v -14304 -14464 0
v -14336 -14496 0
v -14368 -14496 0
v -14368 -14464 0
v -14336 -14464 0
v -13664 -14624 0
v -13696 -14624 0
v -13696 -14592 0
v -13664 -14592 0
v -13888 -14656 0
v -13920 -14656 0
v -13920 -14624 0
v -13888 -14624 0
v -13888 -14688 0
v -13920 -14688 0
v -13920 -14656 0
v -13888 -14656 0
v -14176 -14752 0
v -14208 -14752 0
v -14208 -14720 0
v -14176 -14720 0
v -14176 -14784 0
v -14208 -14784 0
v -14208 -14752 0
v -14176 -14752 0
v -14688 -14944 0
v -14720 -14944 0
v -14720 -14912 0
v -14688 -14912 0
v -14720 -14944 0
v -14752 -14944 0
v -14752 -14912 0
v -14720 -14912 0
v -14816 -14944 0
v -14848 -14944 0
v -14848 -14912 0
v -14816 -14912 0
v -14848 -14944 0
v -14880 -14944 0
v -14880 -14912 0
v -14848 -14912 0
v -14688 -14976 0
v -14720 -14976 0
v -14720 -14944 0
v -14688 -14944 0
v -14720 -14976 0
v -14752 -14976 0
v -14752 -14944 0
v -14720 -14944 0
v -14816 -14976 0
v -14848 -14976 0
v -14848 -14944 0
v -14816 -14944 0
v -14848 -14976 0
v -14880 -14976 0
v -14880 -14944 0
v -14848 -14944 0
v -13824 -15072 0
v -13856 -15072 0
v -13856 -15040 0
v -13824 -15040 0
v -13856 -15072 0
v -13888 -15072 0
v -13888 -15040 0
v -13856 -15040 0
v -13984 -15072 0
v -14016 -15072 0
v -14016 -15040 0
v -13984 -15040 0
v -13824 -15104 0
v -13856 -15104 0
v -13856 -15072 0
v -13824 -15072 0
v -13856 -15104 0
v -13888 -15104 0
v -13888 -15072 0
v -13856 -15072 0
v -14112 -15104 0
v -14144 -15104 0
v -14144 -15072 0
v -14112 -15072 0
v -13984 -15264 0
v -14016 -15264 0
v -14016 -15232 0
v -13984 -15232 0
v -14016 -15264 0
v -14048 -15264 0
v -14048 -15232 0
v -14016 -15232 0
v -13984 -15296 0
v -14016 -15296 0
v -14016 -15264 0
v -13984 -15264 0
v -14016 -15296 0
v -14048 -15296 0
v -14048 -15264 0
v -14016 -15264 0

# Texture cooridinates (Count = 25)
vt 0.6037736 0.5616438
vt 0.6708595 0.5616438
vt 0.6708595 0.7077626
vt 0.6037736 0.7077626
vt 0.8050314 0.5616438
vt 0.8721174 0.5616438
vt 0.8721174 0.7077626
vt 0.8050314 0.7077626
vt 0.6708595 0.8538813
vt 0.6037736 0.8538813
vt 0.3354298 0.5616438
vt 0.4025157 0.5616438
vt 0.4025157 0.7077626
vt 0.3354298 0.7077626
vt 0.4696017 0.5616438
vt 0.4696017 0.7077626
vt 0.3354298 0.4155251
vt 0.4025157 0.4155251
vt 0.4696017 0.4155251
vt 0.7379455 0.7077626
vt 0.8050314 0.8538813
vt 0.7379455 0.8538813
vt 0.7379455 1
vt 0.6708595 1
vt 0.8721174 0.8538813

# Normal
vn 0 0 -1

# Mesh description
g GameMap1_0_mesh_0032

# Faces
f 1/1/1 2/2/1 3/3/1 4/4/1
f 5/5/1 6/6/1 7/7/1 8/8/1
f 9/5/1 10/6/1 11/7/1 12/8/1
f 13/4/1 14/3/1 15/9/1 16/10/1
f 17/11/1 18/12/1 19/13/1 20/14/1
f 21/12/1 22/15/1 23/16/1 24/13/1
f 25/17/1 26/18/1 27/12/1 28/11/1
f 29/18/1 30/19/1 31/15/1 32/12/1
f 33/20/1 34/8/1 35/21/1 36/22/1
f 37/9/1 38/22/1 39/23/1 40/24/1
f 41/3/1 42/20/1 43/22/1 44/9/1
f 45/9/1 46/22/1 47/23/1 48/24/1
f 49/3/1 50/20/1 51/22/1 52/9/1
f 53/11/1 54/12/1 55/13/1 56/14/1
f 57/12/1 58/15/1 59/16/1 60/13/1
f 61/11/1 62/12/1 63/13/1 64/14/1
f 65/12/1 66/15/1 67/16/1 68/13/1
f 69/17/1 70/18/1 71/12/1 72/11/1
f 73/18/1 74/19/1 75/15/1 76/12/1
f 77/17/1 78/18/1 79/12/1 80/11/1
f 81/18/1 82/19/1 83/15/1 84/12/1
f 85/11/1 86/12/1 87/13/1 88/14/1
f 89/12/1 90/15/1 91/16/1 92/13/1
f 93/5/1 94/6/1 95/7/1 96/8/1
f 97/17/1 98/18/1 99/12/1 100/11/1
f 101/18/1 102/19/1 103/15/1 104/12/1
f 105/8/1 106/7/1 107/25/1 108/21/1
f 109/11/1 110/12/1 111/13/1 112/14/1
f 113/12/1 114/15/1 115/16/1 116/13/1
f 117/17/1 118/18/1 119/12/1 120/11/1
f 121/18/1 122/19/1 123/15/1 124/12/1

