# Tiled2Unity generated file. Do not modify by hand.
# Wavefront file for 'GameMap1_0_mesh_0035.obj'

# Vertices (Count = 680)
v -13920 -14528 0
v -13952 -14528 0
v -13952 -14496 0
v -13920 -14496 0
v -13952 -14528 0
v -13984 -14528 0
v -13984 -14496 0
v -13952 -14496 0
v -13984 -14528 0
v -14016 -14528 0
v -14016 -14496 0
v -13984 -14496 0
v -14016 -14528 0
v -14048 -14528 0
v -14048 -14496 0
v -14016 -14496 0
v -14048 -14528 0
v -14080 -14528 0
v -14080 -14496 0
v -14048 -14496 0
v -14080 -14528 0
v -14112 -14528 0
v -14112 -14496 0
v -14080 -14496 0
v -14176 -14528 0
v -14208 -14528 0
v -14208 -14496 0
v -14176 -14496 0
v -14208 -14528 0
v -14240 -14528 0
v -14240 -14496 0
v -14208 -14496 0
v -14240 -14528 0
v -14272 -14528 0
v -14272 -14496 0
v -14240 -14496 0
v -14272 -14528 0
v -14304 -14528 0
v -14304 -14496 0
v -14272 -14496 0
v -14304 -14528 0
v -14336 -14528 0
v -14336 -14496 0
v -14304 -14496 0
v -14336 -14528 0
v -14368 -14528 0
v -14368 -14496 0
v -14336 -14496 0
v -13920 -14560 0
v -13952 -14560 0
v -13952 -14528 0
v -13920 -14528 0
v -13952 -14560 0
v -13984 -14560 0
v -13984 -14528 0
v -13952 -14528 0
v -13984 -14560 0
v -14016 -14560 0
v -14016 -14528 0
v -13984 -14528 0
v -14016 -14560 0
v -14048 -14560 0
v -14048 -14528 0
v -14016 -14528 0
v -14048 -14560 0
v -14080 -14560 0
v -14080 -14528 0
v -14048 -14528 0
v -14080 -14560 0
v -14112 -14560 0
v -14112 -14528 0
v -14080 -14528 0
v -14176 -14560 0
v -14208 -14560 0
v -14208 -14528 0
v -14176 -14528 0
v -14208 -14560 0
v -14240 -14560 0
v -14240 -14528 0
v -14208 -14528 0
v -14240 -14560 0
v -14272 -14560 0
v -14272 -14528 0
v -14240 -14528 0
v -14272 -14560 0
v -14304 -14560 0
v -14304 -14528 0
v -14272 -14528 0
v -14304 -14560 0
v -14336 -14560 0
v -14336 -14528 0
v -14304 -14528 0
v -14336 -14560 0
v -14368 -14560 0
v -14368 -14528 0
v -14336 -14528 0
v -13920 -14592 0
v -13952 -14592 0
v -13952 -14560 0
v -13920 -14560 0
v -13952 -14592 0
v -13984 -14592 0
v -13984 -14560 0
v -13952 -14560 0
v -13984 -14592 0
v -14016 -14592 0
v -14016 -14560 0
v -13984 -14560 0
v -14016 -14592 0
v -14048 -14592 0
v -14048 -14560 0
v -14016 -14560 0
v -14048 -14592 0
v -14080 -14592 0
v -14080 -14560 0
v -14048 -14560 0
v -14080 -14592 0
v -14112 -14592 0
v -14112 -14560 0
v -14080 -14560 0
v -14176 -14592 0
v -14208 -14592 0
v -14208 -14560 0
v -14176 -14560 0
v -14208 -14592 0
v -14240 -14592 0
v -14240 -14560 0
v -14208 -14560 0
v -14240 -14592 0
v -14272 -14592 0
v -14272 -14560 0
v -14240 -14560 0
v -14272 -14592 0
v -14304 -14592 0
v -14304 -14560 0
v -14272 -14560 0
v -14304 -14592 0
v -14336 -14592 0
v -14336 -14560 0
v -14304 -14560 0
v -14336 -14592 0
v -14368 -14592 0
v -14368 -14560 0
v -14336 -14560 0
v -13920 -14624 0
v -13952 -14624 0
v -13952 -14592 0
v -13920 -14592 0
v -13952 -14624 0
v -13984 -14624 0
v -13984 -14592 0
v -13952 -14592 0
v -13984 -14624 0
v -14016 -14624 0
v -14016 -14592 0
v -13984 -14592 0
v -14016 -14624 0
v -14048 -14624 0
v -14048 -14592 0
v -14016 -14592 0
v -14048 -14624 0
v -14080 -14624 0
v -14080 -14592 0
v -14048 -14592 0
v -14080 -14624 0
v -14112 -14624 0
v -14112 -14592 0
v -14080 -14592 0
v -14176 -14624 0
v -14208 -14624 0
v -14208 -14592 0
v -14176 -14592 0
v -14208 -14624 0
v -14240 -14624 0
v -14240 -14592 0
v -14208 -14592 0
v -14240 -14624 0
v -14272 -14624 0
v -14272 -14592 0
v -14240 -14592 0
v -14272 -14624 0
v -14304 -14624 0
v -14304 -14592 0
v -14272 -14592 0
v -14304 -14624 0
v -14336 -14624 0
v -14336 -14592 0
v -14304 -14592 0
v -14336 -14624 0
v -14368 -14624 0
v -14368 -14592 0
v -14336 -14592 0
v -13920 -14656 0
v -13952 -14656 0
v -13952 -14624 0
v -13920 -14624 0
v -13952 -14656 0
v -13984 -14656 0
v -13984 -14624 0
v -13952 -14624 0
v -13984 -14656 0
v -14016 -14656 0
v -14016 -14624 0
v -13984 -14624 0
v -14016 -14656 0
v -14048 -14656 0
v -14048 -14624 0
v -14016 -14624 0
v -14048 -14656 0
v -14080 -14656 0
v -14080 -14624 0
v -14048 -14624 0
v -14080 -14656 0
v -14112 -14656 0
v -14112 -14624 0
v -14080 -14624 0
v -14176 -14656 0
v -14208 -14656 0
v -14208 -14624 0
v -14176 -14624 0
v -14208 -14656 0
v -14240 -14656 0
v -14240 -14624 0
v -14208 -14624 0
v -14240 -14656 0
v -14272 -14656 0
v -14272 -14624 0
v -14240 -14624 0
v -14272 -14656 0
v -14304 -14656 0
v -14304 -14624 0
v -14272 -14624 0
v -14304 -14656 0
v -14336 -14656 0
v -14336 -14624 0
v -14304 -14624 0
v -14336 -14656 0
v -14368 -14656 0
v -14368 -14624 0
v -14336 -14624 0
v -14528 -14656 0
v -14560 -14656 0
v -14560 -14624 0
v -14528 -14624 0
v -14560 -14656 0
v -14592 -14656 0
v -14592 -14624 0
v -14560 -14624 0
v -14592 -14656 0
v -14624 -14656 0
v -14624 -14624 0
v -14592 -14624 0
v -14624 -14656 0
v -14656 -14656 0
v -14656 -14624 0
v -14624 -14624 0
v -14656 -14656 0
v -14688 -14656 0
v -14688 -14624 0
v -14656 -14624 0
v -14688 -14656 0
v -14720 -14656 0
v -14720 -14624 0
v -14688 -14624 0
v -14720 -14656 0
v -14752 -14656 0
v -14752 -14624 0
v -14720 -14624 0
v -14752 -14656 0
v -14784 -14656 0
v -14784 -14624 0
v -14752 -14624 0
v -14784 -14656 0
v -14816 -14656 0
v -14816 -14624 0
v -14784 -14624 0
v -14816 -14656 0
v -14848 -14656 0
v -14848 -14624 0
v -14816 -14624 0
v -14848 -14656 0
v -14880 -14656 0
v -14880 -14624 0
v -14848 -14624 0
v -14880 -14656 0
v -14912 -14656 0
v -14912 -14624 0
v -14880 -14624 0
v -13920 -14688 0
v -13952 -14688 0
v -13952 -14656 0
v -13920 -14656 0
v -13952 -14688 0
v -13984 -14688 0
v -13984 -14656 0
v -13952 -14656 0
v -13984 -14688 0
v -14016 -14688 0
v -14016 -14656 0
v -13984 -14656 0
v -14016 -14688 0
v -14048 -14688 0
v -14048 -14656 0
v -14016 -14656 0
v -14048 -14688 0
v -14080 -14688 0
v -14080 -14656 0
v -14048 -14656 0
v -14080 -14688 0
v -14112 -14688 0
v -14112 -14656 0
v -14080 -14656 0
v -14176 -14688 0
v -14208 -14688 0
v -14208 -14656 0
v -14176 -14656 0
v -14208 -14688 0
v -14240 -14688 0
v -14240 -14656 0
v -14208 -14656 0
v -14240 -14688 0
v -14272 -14688 0
v -14272 -14656 0
v -14240 -14656 0
v -14272 -14688 0
v -14304 -14688 0
v -14304 -14656 0
v -14272 -14656 0
v -14304 -14688 0
v -14336 -14688 0
v -14336 -14656 0
v -14304 -14656 0
v -14336 -14688 0
v -14368 -14688 0
v -14368 -14656 0
v -14336 -14656 0
v -14528 -14688 0
v -14560 -14688 0
v -14560 -14656 0
v -14528 -14656 0
v -14560 -14688 0
v -14592 -14688 0
v -14592 -14656 0
v -14560 -14656 0
v -14592 -14688 0
v -14624 -14688 0
v -14624 -14656 0
v -14592 -14656 0
v -14624 -14688 0
v -14656 -14688 0
v -14656 -14656 0
v -14624 -14656 0
v -14656 -14688 0
v -14688 -14688 0
v -14688 -14656 0
v -14656 -14656 0
v -14688 -14688 0
v -14720 -14688 0
v -14720 -14656 0
v -14688 -14656 0
v -14720 -14688 0
v -14752 -14688 0
v -14752 -14656 0
v -14720 -14656 0
v -14752 -14688 0
v -14784 -14688 0
v -14784 -14656 0
v -14752 -14656 0
v -14784 -14688 0
v -14816 -14688 0
v -14816 -14656 0
v -14784 -14656 0
v -14816 -14688 0
v -14848 -14688 0
v -14848 -14656 0
v -14816 -14656 0
v -14848 -14688 0
v -14880 -14688 0
v -14880 -14656 0
v -14848 -14656 0
v -14880 -14688 0
v -14912 -14688 0
v -14912 -14656 0
v -14880 -14656 0
v -14528 -14720 0
v -14560 -14720 0
v -14560 -14688 0
v -14528 -14688 0
v -14560 -14720 0
v -14592 -14720 0
v -14592 -14688 0
v -14560 -14688 0
v -14592 -14720 0
v -14624 -14720 0
v -14624 -14688 0
v -14592 -14688 0
v -14624 -14720 0
v -14656 -14720 0
v -14656 -14688 0
v -14624 -14688 0
v -14656 -14720 0
v -14688 -14720 0
v -14688 -14688 0
v -14656 -14688 0
v -14688 -14720 0
v -14720 -14720 0
v -14720 -14688 0
v -14688 -14688 0
v -14720 -14720 0
v -14752 -14720 0
v -14752 -14688 0
v -14720 -14688 0
v -14752 -14720 0
v -14784 -14720 0
v -14784 -14688 0
v -14752 -14688 0
v -14784 -14720 0
v -14816 -14720 0
v -14816 -14688 0
v -14784 -14688 0
v -14816 -14720 0
v -14848 -14720 0
v -14848 -14688 0
v -14816 -14688 0
v -14848 -14720 0
v -14880 -14720 0
v -14880 -14688 0
v -14848 -14688 0
v -14880 -14720 0
v -14912 -14720 0
v -14912 -14688 0
v -14880 -14688 0
v -14528 -14752 0
v -14560 -14752 0
v -14560 -14720 0
v -14528 -14720 0
v -14560 -14752 0
v -14592 -14752 0
v -14592 -14720 0
v -14560 -14720 0
v -14592 -14752 0
v -14624 -14752 0
v -14624 -14720 0
v -14592 -14720 0
v -14624 -14752 0
v -14656 -14752 0
v -14656 -14720 0
v -14624 -14720 0
v -14656 -14752 0
v -14688 -14752 0
v -14688 -14720 0
v -14656 -14720 0
v -14688 -14752 0
v -14720 -14752 0
v -14720 -14720 0
v -14688 -14720 0
v -14720 -14752 0
v -14752 -14752 0
v -14752 -14720 0
v -14720 -14720 0
v -14752 -14752 0
v -14784 -14752 0
v -14784 -14720 0
v -14752 -14720 0
v -14784 -14752 0
v -14816 -14752 0
v -14816 -14720 0
v -14784 -14720 0
v -14816 -14752 0
v -14848 -14752 0
v -14848 -14720 0
v -14816 -14720 0
v -14848 -14752 0
v -14880 -14752 0
v -14880 -14720 0
v -14848 -14720 0
v -14880 -14752 0
v -14912 -14752 0
v -14912 -14720 0
v -14880 -14720 0
v -14528 -14784 0
v -14560 -14784 0
v -14560 -14752 0
v -14528 -14752 0
v -14560 -14784 0
v -14592 -14784 0
v -14592 -14752 0
v -14560 -14752 0
v -14592 -14784 0
v -14624 -14784 0
v -14624 -14752 0
v -14592 -14752 0
v -14624 -14784 0
v -14656 -14784 0
v -14656 -14752 0
v -14624 -14752 0
v -14656 -14784 0
v -14688 -14784 0
v -14688 -14752 0
v -14656 -14752 0
v -14688 -14784 0
v -14720 -14784 0
v -14720 -14752 0
v -14688 -14752 0
v -14720 -14784 0
v -14752 -14784 0
v -14752 -14752 0
v -14720 -14752 0
v -14752 -14784 0
v -14784 -14784 0
v -14784 -14752 0
v -14752 -14752 0
v -14784 -14784 0
v -14816 -14784 0
v -14816 -14752 0
v -14784 -14752 0
v -14816 -14784 0
v -14848 -14784 0
v -14848 -14752 0
v -14816 -14752 0
v -14848 -14784 0
v -14880 -14784 0
v -14880 -14752 0
v -14848 -14752 0
v -14880 -14784 0
v -14912 -14784 0
v -14912 -14752 0
v -14880 -14752 0
v -14528 -14816 0
v -14560 -14816 0
v -14560 -14784 0
v -14528 -14784 0
v -14560 -14816 0
v -14592 -14816 0
v -14592 -14784 0
v -14560 -14784 0
v -14592 -14816 0
v -14624 -14816 0
v -14624 -14784 0
v -14592 -14784 0
v -14624 -14816 0
v -14656 -14816 0
v -14656 -14784 0
v -14624 -14784 0
v -14656 -14816 0
v -14688 -14816 0
v -14688 -14784 0
v -14656 -14784 0
v -14688 -14816 0
v -14720 -14816 0
v -14720 -14784 0
v -14688 -14784 0
v -14720 -14816 0
v -14752 -14816 0
v -14752 -14784 0
v -14720 -14784 0
v -14752 -14816 0
v -14784 -14816 0
v -14784 -14784 0
v -14752 -14784 0
v -14784 -14816 0
v -14816 -14816 0
v -14816 -14784 0
v -14784 -14784 0
v -14816 -14816 0
v -14848 -14816 0
v -14848 -14784 0
v -14816 -14784 0
v -14848 -14816 0
v -14880 -14816 0
v -14880 -14784 0
v -14848 -14784 0
v -14880 -14816 0
v -14912 -14816 0
v -14912 -14784 0
v -14880 -14784 0
v -14528 -14848 0
v -14560 -14848 0
v -14560 -14816 0
v -14528 -14816 0
v -14560 -14848 0
v -14592 -14848 0
v -14592 -14816 0
v -14560 -14816 0
v -14592 -14848 0
v -14624 -14848 0
v -14624 -14816 0
v -14592 -14816 0
v -14624 -14848 0
v -14656 -14848 0
v -14656 -14816 0
v -14624 -14816 0
v -14656 -14848 0
v -14688 -14848 0
v -14688 -14816 0
v -14656 -14816 0
v -14688 -14848 0
v -14720 -14848 0
v -14720 -14816 0
v -14688 -14816 0
v -14720 -14848 0
v -14752 -14848 0
v -14752 -14816 0
v -14720 -14816 0
v -14752 -14848 0
v -14784 -14848 0
v -14784 -14816 0
v -14752 -14816 0
v -14784 -14848 0
v -14816 -14848 0
v -14816 -14816 0
v -14784 -14816 0
v -14816 -14848 0
v -14848 -14848 0
v -14848 -14816 0
v -14816 -14816 0
v -14848 -14848 0
v -14880 -14848 0
v -14880 -14816 0
v -14848 -14816 0
v -14880 -14848 0
v -14912 -14848 0
v -14912 -14816 0
v -14880 -14816 0
v -14528 -14880 0
v -14560 -14880 0
v -14560 -14848 0
v -14528 -14848 0
v -14560 -14880 0
v -14592 -14880 0
v -14592 -14848 0
v -14560 -14848 0
v -14592 -14880 0
v -14624 -14880 0
v -14624 -14848 0
v -14592 -14848 0
v -14624 -14880 0
v -14656 -14880 0
v -14656 -14848 0
v -14624 -14848 0
v -14656 -14880 0
v -14688 -14880 0
v -14688 -14848 0
v -14656 -14848 0
v -14688 -14880 0
v -14720 -14880 0
v -14720 -14848 0
v -14688 -14848 0
v -14720 -14880 0
v -14752 -14880 0
v -14752 -14848 0
v -14720 -14848 0
v -14752 -14880 0
v -14784 -14880 0
v -14784 -14848 0
v -14752 -14848 0
v -14784 -14880 0
v -14816 -14880 0
v -14816 -14848 0
v -14784 -14848 0
v -14816 -14880 0
v -14848 -14880 0
v -14848 -14848 0
v -14816 -14848 0
v -14848 -14880 0
v -14880 -14880 0
v -14880 -14848 0
v -14848 -14848 0
v -14880 -14880 0
v -14912 -14880 0
v -14912 -14848 0
v -14880 -14848 0
v -14752 -14912 0
v -14784 -14912 0
v -14784 -14880 0
v -14752 -14880 0
v -14784 -14912 0
v -14816 -14912 0
v -14816 -14880 0
v -14784 -14880 0

# Texture cooridinates (Count = 26)
vt 0 0.5
vt 0.125 0.5
vt 0.125 0.75
vt 0 0.75
vt 0.125 1
vt 0 1
vt 0.25 0.5
vt 0.25 0.75
vt 0.75 0.75
vt 0.875 0.75
vt 0.875 1
vt 0.75 1
vt 0.625 0.75
vt 0.625 1
vt 0.75 0.5
vt 0.875 0.5
vt 0.375 0.75
vt 0.375 1
vt 0.25 1
vt 0.5 0.75
vt 0.5 1
vt 1 0.75
vt 1 1
vt 1 0.5
vt 0.375 0.5
vt 0.5 0.5

# Normal
vn 0 0 -1

# Mesh description
g GameMap1_0_mesh_0035

# Faces
f 1/1/1 2/2/1 3/3/1 4/4/1
f 5/4/1 6/3/1 7/5/1 8/6/1
f 9/4/1 10/3/1 11/5/1 12/6/1
f 13/4/1 14/3/1 15/5/1 16/6/1
f 17/4/1 18/3/1 19/5/1 20/6/1
f 21/2/1 22/7/1 23/8/1 24/3/1
f 25/1/1 26/2/1 27/3/1 28/4/1
f 29/4/1 30/3/1 31/5/1 32/6/1
f 33/4/1 34/3/1 35/5/1 36/6/1
f 37/4/1 38/3/1 39/5/1 40/6/1
f 41/4/1 42/3/1 43/5/1 44/6/1
f 45/2/1 46/7/1 47/8/1 48/3/1
f 49/1/1 50/2/1 51/3/1 52/4/1
f 53/4/1 54/3/1 55/5/1 56/6/1
f 57/4/1 58/3/1 59/5/1 60/6/1
f 61/4/1 62/3/1 63/5/1 64/6/1
f 65/4/1 66/3/1 67/5/1 68/6/1
f 69/2/1 70/7/1 71/8/1 72/3/1
f 73/1/1 74/2/1 75/3/1 76/4/1
f 77/4/1 78/3/1 79/5/1 80/6/1
f 81/4/1 82/3/1 83/5/1 84/6/1
f 85/4/1 86/3/1 87/5/1 88/6/1
f 89/4/1 90/3/1 91/5/1 92/6/1
f 93/2/1 94/7/1 95/8/1 96/3/1
f 97/1/1 98/2/1 99/3/1 100/4/1
f 101/4/1 102/3/1 103/5/1 104/6/1
f 105/4/1 106/3/1 107/5/1 108/6/1
f 109/4/1 110/3/1 111/5/1 112/6/1
f 113/4/1 114/3/1 115/5/1 116/6/1
f 117/2/1 118/7/1 119/8/1 120/3/1
f 121/1/1 122/2/1 123/3/1 124/4/1
f 125/4/1 126/3/1 127/5/1 128/6/1
f 129/4/1 130/3/1 131/5/1 132/6/1
f 133/4/1 134/3/1 135/5/1 136/6/1
f 137/4/1 138/3/1 139/5/1 140/6/1
f 141/2/1 142/7/1 143/8/1 144/3/1
f 145/1/1 146/2/1 147/3/1 148/4/1
f 149/4/1 150/3/1 151/5/1 152/6/1
f 153/4/1 154/3/1 155/5/1 156/6/1
f 157/4/1 158/3/1 159/5/1 160/6/1
f 161/4/1 162/3/1 163/5/1 164/6/1
f 165/2/1 166/7/1 167/8/1 168/3/1
f 169/1/1 170/2/1 171/3/1 172/4/1
f 173/4/1 174/3/1 175/5/1 176/6/1
f 177/4/1 178/3/1 179/5/1 180/6/1
f 181/4/1 182/3/1 183/5/1 184/6/1
f 185/4/1 186/3/1 187/5/1 188/6/1
f 189/2/1 190/7/1 191/8/1 192/3/1
f 193/1/1 194/2/1 195/3/1 196/4/1
f 197/4/1 198/3/1 199/5/1 200/6/1
f 201/4/1 202/3/1 203/5/1 204/6/1
f 205/4/1 206/3/1 207/5/1 208/6/1
f 209/4/1 210/3/1 211/5/1 212/6/1
f 213/2/1 214/7/1 215/8/1 216/3/1
f 217/1/1 218/2/1 219/3/1 220/4/1
f 221/4/1 222/3/1 223/5/1 224/6/1
f 225/4/1 226/3/1 227/5/1 228/6/1
f 229/4/1 230/3/1 231/5/1 232/6/1
f 233/4/1 234/3/1 235/5/1 236/6/1
f 237/2/1 238/7/1 239/8/1 240/3/1
f 241/9/1 242/10/1 243/11/1 244/12/1
f 245/13/1 246/9/1 247/12/1 248/14/1
f 249/13/1 250/9/1 251/12/1 252/14/1
f 253/13/1 254/9/1 255/12/1 256/14/1
f 257/13/1 258/9/1 259/12/1 260/14/1
f 261/13/1 262/9/1 263/12/1 264/14/1
f 265/13/1 266/9/1 267/12/1 268/14/1
f 269/13/1 270/9/1 271/12/1 272/14/1
f 273/13/1 274/9/1 275/12/1 276/14/1
f 277/13/1 278/9/1 279/12/1 280/14/1
f 281/13/1 282/9/1 283/12/1 284/14/1
f 285/15/1 286/16/1 287/10/1 288/9/1
f 289/8/1 290/17/1 291/18/1 292/19/1
f 293/3/1 294/8/1 295/19/1 296/5/1
f 297/3/1 298/8/1 299/19/1 300/5/1
f 301/3/1 302/8/1 303/19/1 304/5/1
f 305/3/1 306/8/1 307/19/1 308/5/1
f 309/17/1 310/20/1 311/21/1 312/18/1
f 313/8/1 314/17/1 315/18/1 316/19/1
f 317/3/1 318/8/1 319/19/1 320/5/1
f 321/3/1 322/8/1 323/19/1 324/5/1
f 325/3/1 326/8/1 327/19/1 328/5/1
f 329/3/1 330/8/1 331/19/1 332/5/1
f 333/17/1 334/20/1 335/21/1 336/18/1
f 337/9/1 338/10/1 339/11/1 340/12/1
f 341/13/1 342/9/1 343/12/1 344/14/1
f 345/13/1 346/9/1 347/12/1 348/14/1
f 349/13/1 350/9/1 351/12/1 352/14/1
f 353/13/1 354/9/1 355/12/1 356/14/1
f 357/13/1 358/9/1 359/12/1 360/14/1
f 361/13/1 362/9/1 363/12/1 364/14/1
f 365/13/1 366/9/1 367/12/1 368/14/1
f 369/13/1 370/9/1 371/12/1 372/14/1
f 373/13/1 374/9/1 375/12/1 376/14/1
f 377/13/1 378/9/1 379/12/1 380/14/1
f 381/15/1 382/16/1 383/10/1 384/9/1
f 385/9/1 386/10/1 387/11/1 388/12/1
f 389/13/1 390/9/1 391/12/1 392/14/1
f 393/13/1 394/9/1 395/12/1 396/14/1
f 397/13/1 398/9/1 399/12/1 400/14/1
f 401/13/1 402/9/1 403/12/1 404/14/1
f 405/13/1 406/9/1 407/12/1 408/14/1
f 409/13/1 410/9/1 411/12/1 412/14/1
f 413/13/1 414/9/1 415/12/1 416/14/1
f 417/13/1 418/9/1 419/12/1 420/14/1
f 421/13/1 422/9/1 423/12/1 424/14/1
f 425/13/1 426/9/1 427/12/1 428/14/1
f 429/15/1 430/16/1 431/10/1 432/9/1
f 433/9/1 434/10/1 435/11/1 436/12/1
f 437/13/1 438/9/1 439/12/1 440/14/1
f 441/13/1 442/9/1 443/12/1 444/14/1
f 445/13/1 446/9/1 447/12/1 448/14/1
f 449/13/1 450/9/1 451/12/1 452/14/1
f 453/13/1 454/9/1 455/12/1 456/14/1
f 457/13/1 458/9/1 459/12/1 460/14/1
f 461/13/1 462/9/1 463/12/1 464/14/1
f 465/13/1 466/9/1 467/12/1 468/14/1
f 469/13/1 470/9/1 471/12/1 472/14/1
f 473/13/1 474/9/1 475/12/1 476/14/1
f 477/15/1 478/16/1 479/10/1 480/9/1
f 481/9/1 482/10/1 483/11/1 484/12/1
f 485/13/1 486/9/1 487/12/1 488/14/1
f 489/13/1 490/9/1 491/12/1 492/14/1
f 493/13/1 494/9/1 495/12/1 496/14/1
f 497/13/1 498/9/1 499/12/1 500/14/1
f 501/13/1 502/9/1 503/12/1 504/14/1
f 505/13/1 506/9/1 507/12/1 508/14/1
f 509/13/1 510/9/1 511/12/1 512/14/1
f 513/13/1 514/9/1 515/12/1 516/14/1
f 517/13/1 518/9/1 519/12/1 520/14/1
f 521/13/1 522/9/1 523/12/1 524/14/1
f 525/15/1 526/16/1 527/10/1 528/9/1
f 529/9/1 530/10/1 531/11/1 532/12/1
f 533/13/1 534/9/1 535/12/1 536/14/1
f 537/13/1 538/9/1 539/12/1 540/14/1
f 541/13/1 542/9/1 543/12/1 544/14/1
f 545/13/1 546/9/1 547/12/1 548/14/1
f 549/13/1 550/9/1 551/12/1 552/14/1
f 553/13/1 554/9/1 555/12/1 556/14/1
f 557/13/1 558/9/1 559/12/1 560/14/1
f 561/13/1 562/9/1 563/12/1 564/14/1
f 565/13/1 566/9/1 567/12/1 568/14/1
f 569/13/1 570/9/1 571/12/1 572/14/1
f 573/15/1 574/16/1 575/10/1 576/9/1
f 577/10/1 578/22/1 579/23/1 580/11/1
f 581/20/1 582/13/1 583/14/1 584/21/1
f 585/20/1 586/13/1 587/14/1 588/21/1
f 589/20/1 590/13/1 591/14/1 592/21/1
f 593/20/1 594/13/1 595/14/1 596/21/1
f 597/20/1 598/13/1 599/14/1 600/21/1
f 601/20/1 602/13/1 603/14/1 604/21/1
f 605/20/1 606/13/1 607/14/1 608/21/1
f 609/20/1 610/13/1 611/14/1 612/21/1
f 613/20/1 614/13/1 615/14/1 616/21/1
f 617/20/1 618/13/1 619/14/1 620/21/1
f 621/16/1 622/24/1 623/22/1 624/10/1
f 625/7/1 626/25/1 627/17/1 628/8/1
f 629/7/1 630/25/1 631/17/1 632/8/1
f 633/7/1 634/25/1 635/17/1 636/8/1
f 637/7/1 638/25/1 639/17/1 640/8/1
f 641/7/1 642/25/1 643/17/1 644/8/1
f 645/7/1 646/25/1 647/17/1 648/8/1
f 649/7/1 650/25/1 651/17/1 652/8/1
f 653/7/1 654/25/1 655/17/1 656/8/1
f 657/7/1 658/25/1 659/17/1 660/8/1
f 661/7/1 662/25/1 663/17/1 664/8/1
f 665/7/1 666/25/1 667/17/1 668/8/1
f 669/7/1 670/25/1 671/17/1 672/8/1
f 673/25/1 674/26/1 675/20/1 676/17/1
f 677/25/1 678/26/1 679/20/1 680/17/1

