# Tiled2Unity generated file. Do not modify by hand.
# Wavefront file for 'GameMap1_0_mesh_0057.obj'

# Vertices (Count = 880)
v -1024 -13824 0
v -1056 -13824 0
v -1056 -13792 0
v -1024 -13792 0
v -1056 -13824 0
v -1088 -13824 0
v -1088 -13792 0
v -1056 -13792 0
v -1088 -13824 0
v -1120 -13824 0
v -1120 -13792 0
v -1088 -13792 0
v -1120 -13824 0
v -1152 -13824 0
v -1152 -13792 0
v -1120 -13792 0
v -1024 -13856 0
v -1056 -13856 0
v -1056 -13824 0
v -1024 -13824 0
v -1056 -13856 0
v -1088 -13856 0
v -1088 -13824 0
v -1056 -13824 0
v -1088 -13856 0
v -1120 -13856 0
v -1120 -13824 0
v -1088 -13824 0
v -1120 -13856 0
v -1152 -13856 0
v -1152 -13824 0
v -1120 -13824 0
v -1024 -13888 0
v -1056 -13888 0
v -1056 -13856 0
v -1024 -13856 0
v -1056 -13888 0
v -1088 -13888 0
v -1088 -13856 0
v -1056 -13856 0
v -1088 -13888 0
v -1120 -13888 0
v -1120 -13856 0
v -1088 -13856 0
v -1120 -13888 0
v -1152 -13888 0
v -1152 -13856 0
v -1120 -13856 0
v -1024 -13920 0
v -1056 -13920 0
v -1056 -13888 0
v -1024 -13888 0
v -1056 -13920 0
v -1088 -13920 0
v -1088 -13888 0
v -1056 -13888 0
v -1088 -13920 0
v -1120 -13920 0
v -1120 -13888 0
v -1088 -13888 0
v -1120 -13920 0
v -1152 -13920 0
v -1152 -13888 0
v -1120 -13888 0
v -1440 -13920 0
v -1472 -13920 0
v -1472 -13888 0
v -1440 -13888 0
v -1472 -13920 0
v -1504 -13920 0
v -1504 -13888 0
v -1472 -13888 0
v -1504 -13920 0
v -1536 -13920 0
v -1536 -13888 0
v -1504 -13888 0
v -1536 -13920 0
v -1568 -13920 0
v -1568 -13888 0
v -1536 -13888 0
v -1024 -13952 0
v -1056 -13952 0
v -1056 -13920 0
v -1024 -13920 0
v -1056 -13952 0
v -1088 -13952 0
v -1088 -13920 0
v -1056 -13920 0
v -1088 -13952 0
v -1120 -13952 0
v -1120 -13920 0
v -1088 -13920 0
v -1120 -13952 0
v -1152 -13952 0
v -1152 -13920 0
v -1120 -13920 0
v -1440 -13952 0
v -1472 -13952 0
v -1472 -13920 0
v -1440 -13920 0
v -1472 -13952 0
v -1504 -13952 0
v -1504 -13920 0
v -1472 -13920 0
v -1504 -13952 0
v -1536 -13952 0
v -1536 -13920 0
v -1504 -13920 0
v -1536 -13952 0
v -1568 -13952 0
v -1568 -13920 0
v -1536 -13920 0
v -1440 -13984 0
v -1472 -13984 0
v -1472 -13952 0
v -1440 -13952 0
v -1472 -13984 0
v -1504 -13984 0
v -1504 -13952 0
v -1472 -13952 0
v -1504 -13984 0
v -1536 -13984 0
v -1536 -13952 0
v -1504 -13952 0
v -1536 -13984 0
v -1568 -13984 0
v -1568 -13952 0
v -1536 -13952 0
v -1440 -14016 0
v -1472 -14016 0
v -1472 -13984 0
v -1440 -13984 0
v -1472 -14016 0
v -1504 -14016 0
v -1504 -13984 0
v -1472 -13984 0
v -1504 -14016 0
v -1536 -14016 0
v -1536 -13984 0
v -1504 -13984 0
v -1536 -14016 0
v -1568 -14016 0
v -1568 -13984 0
v -1536 -13984 0
v -1440 -14048 0
v -1472 -14048 0
v -1472 -14016 0
v -1440 -14016 0
v -1472 -14048 0
v -1504 -14048 0
v -1504 -14016 0
v -1472 -14016 0
v -1504 -14048 0
v -1536 -14048 0
v -1536 -14016 0
v -1504 -14016 0
v -1536 -14048 0
v -1568 -14048 0
v -1568 -14016 0
v -1536 -14016 0
v -1760 -14240 0
v -1792 -14240 0
v -1792 -14208 0
v -1760 -14208 0
v -1792 -14240 0
v -1824 -14240 0
v -1824 -14208 0
v -1792 -14208 0
v -1824 -14240 0
v -1856 -14240 0
v -1856 -14208 0
v -1824 -14208 0
v -1856 -14240 0
v -1888 -14240 0
v -1888 -14208 0
v -1856 -14208 0
v -1760 -14272 0
v -1792 -14272 0
v -1792 -14240 0
v -1760 -14240 0
v -1792 -14272 0
v -1824 -14272 0
v -1824 -14240 0
v -1792 -14240 0
v -1824 -14272 0
v -1856 -14272 0
v -1856 -14240 0
v -1824 -14240 0
v -1856 -14272 0
v -1888 -14272 0
v -1888 -14240 0
v -1856 -14240 0
v -1760 -14304 0
v -1792 -14304 0
v -1792 -14272 0
v -1760 -14272 0
v -1792 -14304 0
v -1824 -14304 0
v -1824 -14272 0
v -1792 -14272 0
v -1824 -14304 0
v -1856 -14304 0
v -1856 -14272 0
v -1824 -14272 0
v -1856 -14304 0
v -1888 -14304 0
v -1888 -14272 0
v -1856 -14272 0
v -1760 -14336 0
v -1792 -14336 0
v -1792 -14304 0
v -1760 -14304 0
v -1792 -14336 0
v -1824 -14336 0
v -1824 -14304 0
v -1792 -14304 0
v -1824 -14336 0
v -1856 -14336 0
v -1856 -14304 0
v -1824 -14304 0
v -1856 -14336 0
v -1888 -14336 0
v -1888 -14304 0
v -1856 -14304 0
v -1760 -14368 0
v -1792 -14368 0
v -1792 -14336 0
v -1760 -14336 0
v -1792 -14368 0
v -1824 -14368 0
v -1824 -14336 0
v -1792 -14336 0
v -1824 -14368 0
v -1856 -14368 0
v -1856 -14336 0
v -1824 -14336 0
v -1856 -14368 0
v -1888 -14368 0
v -1888 -14336 0
v -1856 -14336 0
v -1664 -14400 0
v -1696 -14400 0
v -1696 -14368 0
v -1664 -14368 0
v -1696 -14400 0
v -1728 -14400 0
v -1728 -14368 0
v -1696 -14368 0
v -1728 -14400 0
v -1760 -14400 0
v -1760 -14368 0
v -1728 -14368 0
v -1760 -14400 0
v -1792 -14400 0
v -1792 -14368 0
v -1760 -14368 0
v -1664 -14432 0
v -1696 -14432 0
v -1696 -14400 0
v -1664 -14400 0
v -1696 -14432 0
v -1728 -14432 0
v -1728 -14400 0
v -1696 -14400 0
v -1728 -14432 0
v -1760 -14432 0
v -1760 -14400 0
v -1728 -14400 0
v -1760 -14432 0
v -1792 -14432 0
v -1792 -14400 0
v -1760 -14400 0
v -1664 -14464 0
v -1696 -14464 0
v -1696 -14432 0
v -1664 -14432 0
v -1696 -14464 0
v -1728 -14464 0
v -1728 -14432 0
v -1696 -14432 0
v -1728 -14464 0
v -1760 -14464 0
v -1760 -14432 0
v -1728 -14432 0
v -1760 -14464 0
v -1792 -14464 0
v -1792 -14432 0
v -1760 -14432 0
v -1664 -14496 0
v -1696 -14496 0
v -1696 -14464 0
v -1664 -14464 0
v -1696 -14496 0
v -1728 -14496 0
v -1728 -14464 0
v -1696 -14464 0
v -1728 -14496 0
v -1760 -14496 0
v -1760 -14464 0
v -1728 -14464 0
v -1760 -14496 0
v -1792 -14496 0
v -1792 -14464 0
v -1760 -14464 0
v -1664 -14528 0
v -1696 -14528 0
v -1696 -14496 0
v -1664 -14496 0
v -1696 -14528 0
v -1728 -14528 0
v -1728 -14496 0
v -1696 -14496 0
v -1728 -14528 0
v -1760 -14528 0
v -1760 -14496 0
v -1728 -14496 0
v -1760 -14528 0
v -1792 -14528 0
v -1792 -14496 0
v -1760 -14496 0
v -1632 -14560 0
v -1664 -14560 0
v -1664 -14528 0
v -1632 -14528 0
v -1664 -14560 0
v -1696 -14560 0
v -1696 -14528 0
v -1664 -14528 0
v -1696 -14560 0
v -1728 -14560 0
v -1728 -14528 0
v -1696 -14528 0
v -1728 -14560 0
v -1760 -14560 0
v -1760 -14528 0
v -1728 -14528 0
v -1440 -14592 0
v -1472 -14592 0
v -1472 -14560 0
v -1440 -14560 0
v -1472 -14592 0
v -1504 -14592 0
v -1504 -14560 0
v -1472 -14560 0
v -1504 -14592 0
v -1536 -14592 0
v -1536 -14560 0
v -1504 -14560 0
v -1536 -14592 0
v -1568 -14592 0
v -1568 -14560 0
v -1536 -14560 0
v -1632 -14592 0
v -1664 -14592 0
v -1664 -14560 0
v -1632 -14560 0
v -1664 -14592 0
v -1696 -14592 0
v -1696 -14560 0
v -1664 -14560 0
v -1696 -14592 0
v -1728 -14592 0
v -1728 -14560 0
v -1696 -14560 0
v -1728 -14592 0
v -1760 -14592 0
v -1760 -14560 0
v -1728 -14560 0
v -1440 -14624 0
v -1472 -14624 0
v -1472 -14592 0
v -1440 -14592 0
v -1472 -14624 0
v -1504 -14624 0
v -1504 -14592 0
v -1472 -14592 0
v -1504 -14624 0
v -1536 -14624 0
v -1536 -14592 0
v -1504 -14592 0
v -1536 -14624 0
v -1568 -14624 0
v -1568 -14592 0
v -1536 -14592 0
v -1632 -14624 0
v -1664 -14624 0
v -1664 -14592 0
v -1632 -14592 0
v -1664 -14624 0
v -1696 -14624 0
v -1696 -14592 0
v -1664 -14592 0
v -1696 -14624 0
v -1728 -14624 0
v -1728 -14592 0
v -1696 -14592 0
v -1728 -14624 0
v -1760 -14624 0
v -1760 -14592 0
v -1728 -14592 0
v -1440 -14656 0
v -1472 -14656 0
v -1472 -14624 0
v -1440 -14624 0
v -1472 -14656 0
v -1504 -14656 0
v -1504 -14624 0
v -1472 -14624 0
v -1504 -14656 0
v -1536 -14656 0
v -1536 -14624 0
v -1504 -14624 0
v -1536 -14656 0
v -1568 -14656 0
v -1568 -14624 0
v -1536 -14624 0
v -1632 -14656 0
v -1664 -14656 0
v -1664 -14624 0
v -1632 -14624 0
v -1664 -14656 0
v -1696 -14656 0
v -1696 -14624 0
v -1664 -14624 0
v -1696 -14656 0
v -1728 -14656 0
v -1728 -14624 0
v -1696 -14624 0
v -1728 -14656 0
v -1760 -14656 0
v -1760 -14624 0
v -1728 -14624 0
v -1440 -14688 0
v -1472 -14688 0
v -1472 -14656 0
v -1440 -14656 0
v -1472 -14688 0
v -1504 -14688 0
v -1504 -14656 0
v -1472 -14656 0
v -1504 -14688 0
v -1536 -14688 0
v -1536 -14656 0
v -1504 -14656 0
v -1536 -14688 0
v -1568 -14688 0
v -1568 -14656 0
v -1536 -14656 0
v -1632 -14688 0
v -1664 -14688 0
v -1664 -14656 0
v -1632 -14656 0
v -1664 -14688 0
v -1696 -14688 0
v -1696 -14656 0
v -1664 -14656 0
v -1696 -14688 0
v -1728 -14688 0
v -1728 -14656 0
v -1696 -14656 0
v -1728 -14688 0
v -1760 -14688 0
v -1760 -14656 0
v -1728 -14656 0
v -1440 -14720 0
v -1472 -14720 0
v -1472 -14688 0
v -1440 -14688 0
v -1472 -14720 0
v -1504 -14720 0
v -1504 -14688 0
v -1472 -14688 0
v -1504 -14720 0
v -1536 -14720 0
v -1536 -14688 0
v -1504 -14688 0
v -1536 -14720 0
v -1568 -14720 0
v -1568 -14688 0
v -1536 -14688 0
v -1568 -14720 0
v -1600 -14720 0
v -1600 -14688 0
v -1568 -14688 0
v -1600 -14720 0
v -1632 -14720 0
v -1632 -14688 0
v -1600 -14688 0
v -1632 -14720 0
v -1664 -14720 0
v -1664 -14688 0
v -1632 -14688 0
v -1664 -14720 0
v -1696 -14720 0
v -1696 -14688 0
v -1664 -14688 0
v -1184 -14752 0
v -1216 -14752 0
v -1216 -14720 0
v -1184 -14720 0
v -1216 -14752 0
v -1248 -14752 0
v -1248 -14720 0
v -1216 -14720 0
v -1248 -14752 0
v -1280 -14752 0
v -1280 -14720 0
v -1248 -14720 0
v -1280 -14752 0
v -1312 -14752 0
v -1312 -14720 0
v -1280 -14720 0
v -1312 -14752 0
v -1344 -14752 0
v -1344 -14720 0
v -1312 -14720 0
v -1344 -14752 0
v -1376 -14752 0
v -1376 -14720 0
v -1344 -14720 0
v -1376 -14752 0
v -1408 -14752 0
v -1408 -14720 0
v -1376 -14720 0
v -1408 -14752 0
v -1440 -14752 0
v -1440 -14720 0
v -1408 -14720 0
v -1440 -14752 0
v -1472 -14752 0
v -1472 -14720 0
v -1440 -14720 0
v -1472 -14752 0
v -1504 -14752 0
v -1504 -14720 0
v -1472 -14720 0
v -1504 -14752 0
v -1536 -14752 0
v -1536 -14720 0
v -1504 -14720 0
v -1536 -14752 0
v -1568 -14752 0
v -1568 -14720 0
v -1536 -14720 0
v -1568 -14752 0
v -1600 -14752 0
v -1600 -14720 0
v -1568 -14720 0
v -1600 -14752 0
v -1632 -14752 0
v -1632 -14720 0
v -1600 -14720 0
v -1632 -14752 0
v -1664 -14752 0
v -1664 -14720 0
v -1632 -14720 0
v -1664 -14752 0
v -1696 -14752 0
v -1696 -14720 0
v -1664 -14720 0
v -1184 -14784 0
v -1216 -14784 0
v -1216 -14752 0
v -1184 -14752 0
v -1216 -14784 0
v -1248 -14784 0
v -1248 -14752 0
v -1216 -14752 0
v -1248 -14784 0
v -1280 -14784 0
v -1280 -14752 0
v -1248 -14752 0
v -1280 -14784 0
v -1312 -14784 0
v -1312 -14752 0
v -1280 -14752 0
v -1312 -14784 0
v -1344 -14784 0
v -1344 -14752 0
v -1312 -14752 0
v -1344 -14784 0
v -1376 -14784 0
v -1376 -14752 0
v -1344 -14752 0
v -1376 -14784 0
v -1408 -14784 0
v -1408 -14752 0
v -1376 -14752 0
v -1408 -14784 0
v -1440 -14784 0
v -1440 -14752 0
v -1408 -14752 0
v -1440 -14784 0
v -1472 -14784 0
v -1472 -14752 0
v -1440 -14752 0
v -1472 -14784 0
v -1504 -14784 0
v -1504 -14752 0
v -1472 -14752 0
v -1504 -14784 0
v -1536 -14784 0
v -1536 -14752 0
v -1504 -14752 0
v -1536 -14784 0
v -1568 -14784 0
v -1568 -14752 0
v -1536 -14752 0
v -1568 -14784 0
v -1600 -14784 0
v -1600 -14752 0
v -1568 -14752 0
v -1600 -14784 0
v -1632 -14784 0
v -1632 -14752 0
v -1600 -14752 0
v -1632 -14784 0
v -1664 -14784 0
v -1664 -14752 0
v -1632 -14752 0
v -1664 -14784 0
v -1696 -14784 0
v -1696 -14752 0
v -1664 -14752 0
v -1184 -14816 0
v -1216 -14816 0
v -1216 -14784 0
v -1184 -14784 0
v -1216 -14816 0
v -1248 -14816 0
v -1248 -14784 0
v -1216 -14784 0
v -1248 -14816 0
v -1280 -14816 0
v -1280 -14784 0
v -1248 -14784 0
v -1280 -14816 0
v -1312 -14816 0
v -1312 -14784 0
v -1280 -14784 0
v -1312 -14816 0
v -1344 -14816 0
v -1344 -14784 0
v -1312 -14784 0
v -1344 -14816 0
v -1376 -14816 0
v -1376 -14784 0
v -1344 -14784 0
v -1376 -14816 0
v -1408 -14816 0
v -1408 -14784 0
v -1376 -14784 0
v -1408 -14816 0
v -1440 -14816 0
v -1440 -14784 0
v -1408 -14784 0
v -1440 -14816 0
v -1472 -14816 0
v -1472 -14784 0
v -1440 -14784 0
v -1472 -14816 0
v -1504 -14816 0
v -1504 -14784 0
v -1472 -14784 0
v -1504 -14816 0
v -1536 -14816 0
v -1536 -14784 0
v -1504 -14784 0
v -1536 -14816 0
v -1568 -14816 0
v -1568 -14784 0
v -1536 -14784 0
v -1568 -14816 0
v -1600 -14816 0
v -1600 -14784 0
v -1568 -14784 0
v -1600 -14816 0
v -1632 -14816 0
v -1632 -14784 0
v -1600 -14784 0
v -1632 -14816 0
v -1664 -14816 0
v -1664 -14784 0
v -1632 -14784 0
v -1664 -14816 0
v -1696 -14816 0
v -1696 -14784 0
v -1664 -14784 0
v -1184 -14848 0
v -1216 -14848 0
v -1216 -14816 0
v -1184 -14816 0
v -1216 -14848 0
v -1248 -14848 0
v -1248 -14816 0
v -1216 -14816 0
v -1248 -14848 0
v -1280 -14848 0
v -1280 -14816 0
v -1248 -14816 0
v -1280 -14848 0
v -1312 -14848 0
v -1312 -14816 0
v -1280 -14816 0
v -1312 -14848 0
v -1344 -14848 0
v -1344 -14816 0
v -1312 -14816 0
v -1344 -14848 0
v -1376 -14848 0
v -1376 -14816 0
v -1344 -14816 0
v -1376 -14848 0
v -1408 -14848 0
v -1408 -14816 0
v -1376 -14816 0
v -1408 -14848 0
v -1440 -14848 0
v -1440 -14816 0
v -1408 -14816 0
v -1440 -14848 0
v -1472 -14848 0
v -1472 -14816 0
v -1440 -14816 0
v -1472 -14848 0
v -1504 -14848 0
v -1504 -14816 0
v -1472 -14816 0
v -1504 -14848 0
v -1536 -14848 0
v -1536 -14816 0
v -1504 -14816 0
v -1536 -14848 0
v -1568 -14848 0
v -1568 -14816 0
v -1536 -14816 0
v -1568 -14848 0
v -1600 -14848 0
v -1600 -14816 0
v -1568 -14816 0
v -1600 -14848 0
v -1632 -14848 0
v -1632 -14816 0
v -1600 -14816 0
v -1632 -14848 0
v -1664 -14848 0
v -1664 -14816 0
v -1632 -14816 0
v -1664 -14848 0
v -1696 -14848 0
v -1696 -14816 0
v -1664 -14816 0
v -1184 -14880 0
v -1216 -14880 0
v -1216 -14848 0
v -1184 -14848 0
v -1216 -14880 0
v -1248 -14880 0
v -1248 -14848 0
v -1216 -14848 0
v -1248 -14880 0
v -1280 -14880 0
v -1280 -14848 0
v -1248 -14848 0
v -1280 -14880 0
v -1312 -14880 0
v -1312 -14848 0
v -1280 -14848 0
v -1312 -14880 0
v -1344 -14880 0
v -1344 -14848 0
v -1312 -14848 0
v -1344 -14880 0
v -1376 -14880 0
v -1376 -14848 0
v -1344 -14848 0
v -1376 -14880 0
v -1408 -14880 0
v -1408 -14848 0
v -1376 -14848 0
v -1408 -14880 0
v -1440 -14880 0
v -1440 -14848 0
v -1408 -14848 0
v -1440 -14880 0
v -1472 -14880 0
v -1472 -14848 0
v -1440 -14848 0
v -1472 -14880 0
v -1504 -14880 0
v -1504 -14848 0
v -1472 -14848 0
v -1504 -14880 0
v -1536 -14880 0
v -1536 -14848 0
v -1504 -14848 0
v -1536 -14880 0
v -1568 -14880 0
v -1568 -14848 0
v -1536 -14848 0
v -1632 -14880 0
v -1664 -14880 0
v -1664 -14848 0
v -1632 -14848 0
v -1664 -14880 0
v -1696 -14880 0
v -1696 -14848 0
v -1664 -14848 0
v -1696 -14880 0
v -1728 -14880 0
v -1728 -14848 0
v -1696 -14848 0
v -1728 -14880 0
v -1760 -14880 0
v -1760 -14848 0
v -1728 -14848 0
v -1632 -14912 0
v -1664 -14912 0
v -1664 -14880 0
v -1632 -14880 0
v -1664 -14912 0
v -1696 -14912 0
v -1696 -14880 0
v -1664 -14880 0
v -1696 -14912 0
v -1728 -14912 0
v -1728 -14880 0
v -1696 -14880 0
v -1728 -14912 0
v -1760 -14912 0
v -1760 -14880 0
v -1728 -14880 0
v -1632 -14944 0
v -1664 -14944 0
v -1664 -14912 0
v -1632 -14912 0
v -1664 -14944 0
v -1696 -14944 0
v -1696 -14912 0
v -1664 -14912 0
v -1696 -14944 0
v -1728 -14944 0
v -1728 -14912 0
v -1696 -14912 0
v -1728 -14944 0
v -1760 -14944 0
v -1760 -14912 0
v -1728 -14912 0
v -1632 -14976 0
v -1664 -14976 0
v -1664 -14944 0
v -1632 -14944 0
v -1664 -14976 0
v -1696 -14976 0
v -1696 -14944 0
v -1664 -14944 0
v -1696 -14976 0
v -1728 -14976 0
v -1728 -14944 0
v -1696 -14944 0
v -1728 -14976 0
v -1760 -14976 0
v -1760 -14944 0
v -1728 -14944 0
v -1632 -15008 0
v -1664 -15008 0
v -1664 -14976 0
v -1632 -14976 0
v -1664 -15008 0
v -1696 -15008 0
v -1696 -14976 0
v -1664 -14976 0
v -1696 -15008 0
v -1728 -15008 0
v -1728 -14976 0
v -1696 -14976 0
v -1728 -15008 0
v -1760 -15008 0
v -1760 -14976 0
v -1728 -14976 0

# Texture cooridinates (Count = 30)
vt 0 0.6666666
vt 0.04761905 0.6666666
vt 0.04761905 0.8333333
vt 0 0.8333333
vt 0.0952381 0.6666666
vt 0.0952381 0.8333333
vt 0.1428571 0.6666666
vt 0.1428571 0.8333333
vt 0.1904762 0.6666666
vt 0.1904762 0.8333333
vt 0 0.5
vt 0.04761905 0.5
vt 0.0952381 0.5
vt 0.1428571 0.5
vt 0.1904762 0.5
vt 0 0.3333333
vt 0.04761905 0.3333333
vt 0.0952381 0.3333333
vt 0.1428571 0.3333333
vt 0.1904762 0.3333333
vt 0 0.1666667
vt 0.04761905 0.1666667
vt 0.0952381 0.1666667
vt 0.1428571 0.1666667
vt 0.1904762 0.1666667
vt 0 0
vt 0.04761905 0
vt 0.0952381 0
vt 0.1428571 0
vt 0.1904762 0

# Normal
vn 0 0 -1

# Mesh description
g GameMap1_0_mesh_0057

# Faces
f 1/1/1 2/2/1 3/3/1 4/4/1
f 5/2/1 6/5/1 7/6/1 8/3/1
f 9/5/1 10/7/1 11/8/1 12/6/1
f 13/7/1 14/9/1 15/10/1 16/8/1
f 17/11/1 18/12/1 19/2/1 20/1/1
f 21/12/1 22/13/1 23/5/1 24/2/1
f 25/13/1 26/14/1 27/7/1 28/5/1
f 29/14/1 30/15/1 31/9/1 32/7/1
f 33/16/1 34/17/1 35/12/1 36/11/1
f 37/17/1 38/18/1 39/13/1 40/12/1
f 41/18/1 42/19/1 43/14/1 44/13/1
f 45/19/1 46/20/1 47/15/1 48/14/1
f 49/21/1 50/22/1 51/17/1 52/16/1
f 53/22/1 54/23/1 55/18/1 56/17/1
f 57/23/1 58/24/1 59/19/1 60/18/1
f 61/24/1 62/25/1 63/20/1 64/19/1
f 65/1/1 66/2/1 67/3/1 68/4/1
f 69/2/1 70/5/1 71/6/1 72/3/1
f 73/5/1 74/7/1 75/8/1 76/6/1
f 77/7/1 78/9/1 79/10/1 80/8/1
f 81/26/1 82/27/1 83/22/1 84/21/1
f 85/27/1 86/28/1 87/23/1 88/22/1
f 89/28/1 90/29/1 91/24/1 92/23/1
f 93/29/1 94/30/1 95/25/1 96/24/1
f 97/11/1 98/12/1 99/2/1 100/1/1
f 101/12/1 102/13/1 103/5/1 104/2/1
f 105/13/1 106/14/1 107/7/1 108/5/1
f 109/14/1 110/15/1 111/9/1 112/7/1
f 113/16/1 114/17/1 115/12/1 116/11/1
f 117/17/1 118/18/1 119/13/1 120/12/1
f 121/18/1 122/19/1 123/14/1 124/13/1
f 125/19/1 126/20/1 127/15/1 128/14/1
f 129/21/1 130/22/1 131/17/1 132/16/1
f 133/22/1 134/23/1 135/18/1 136/17/1
f 137/23/1 138/24/1 139/19/1 140/18/1
f 141/24/1 142/25/1 143/20/1 144/19/1
f 145/26/1 146/27/1 147/22/1 148/21/1
f 149/27/1 150/28/1 151/23/1 152/22/1
f 153/28/1 154/29/1 155/24/1 156/23/1
f 157/29/1 158/30/1 159/25/1 160/24/1
f 161/1/1 162/2/1 163/3/1 164/4/1
f 165/2/1 166/5/1 167/6/1 168/3/1
f 169/5/1 170/7/1 171/8/1 172/6/1
f 173/7/1 174/9/1 175/10/1 176/8/1
f 177/11/1 178/12/1 179/2/1 180/1/1
f 181/12/1 182/13/1 183/5/1 184/2/1
f 185/13/1 186/14/1 187/7/1 188/5/1
f 189/14/1 190/15/1 191/9/1 192/7/1
f 193/16/1 194/17/1 195/12/1 196/11/1
f 197/17/1 198/18/1 199/13/1 200/12/1
f 201/18/1 202/19/1 203/14/1 204/13/1
f 205/19/1 206/20/1 207/15/1 208/14/1
f 209/21/1 210/22/1 211/17/1 212/16/1
f 213/22/1 214/23/1 215/18/1 216/17/1
f 217/23/1 218/24/1 219/19/1 220/18/1
f 221/24/1 222/25/1 223/20/1 224/19/1
f 225/26/1 226/27/1 227/22/1 228/21/1
f 229/27/1 230/28/1 231/23/1 232/22/1
f 233/28/1 234/29/1 235/24/1 236/23/1
f 237/29/1 238/30/1 239/25/1 240/24/1
f 241/1/1 242/2/1 243/3/1 244/4/1
f 245/2/1 246/5/1 247/6/1 248/3/1
f 249/5/1 250/7/1 251/8/1 252/6/1
f 253/7/1 254/9/1 255/10/1 256/8/1
f 257/11/1 258/12/1 259/2/1 260/1/1
f 261/12/1 262/13/1 263/5/1 264/2/1
f 265/13/1 266/14/1 267/7/1 268/5/1
f 269/14/1 270/15/1 271/9/1 272/7/1
f 273/16/1 274/17/1 275/12/1 276/11/1
f 277/17/1 278/18/1 279/13/1 280/12/1
f 281/18/1 282/19/1 283/14/1 284/13/1
f 285/19/1 286/20/1 287/15/1 288/14/1
f 289/21/1 290/22/1 291/17/1 292/16/1
f 293/22/1 294/23/1 295/18/1 296/17/1
f 297/23/1 298/24/1 299/19/1 300/18/1
f 301/24/1 302/25/1 303/20/1 304/19/1
f 305/26/1 306/27/1 307/22/1 308/21/1
f 309/27/1 310/28/1 311/23/1 312/22/1
f 313/28/1 314/29/1 315/24/1 316/23/1
f 317/29/1 318/30/1 319/25/1 320/24/1
f 321/1/1 322/2/1 323/3/1 324/4/1
f 325/2/1 326/5/1 327/6/1 328/3/1
f 329/5/1 330/7/1 331/8/1 332/6/1
f 333/7/1 334/9/1 335/10/1 336/8/1
f 337/1/1 338/2/1 339/3/1 340/4/1
f 341/2/1 342/5/1 343/6/1 344/3/1
f 345/5/1 346/7/1 347/8/1 348/6/1
f 349/7/1 350/9/1 351/10/1 352/8/1
f 353/11/1 354/12/1 355/2/1 356/1/1
f 357/12/1 358/13/1 359/5/1 360/2/1
f 361/13/1 362/14/1 363/7/1 364/5/1
f 365/14/1 366/15/1 367/9/1 368/7/1
f 369/11/1 370/12/1 371/2/1 372/1/1
f 373/12/1 374/13/1 375/5/1 376/2/1
f 377/13/1 378/14/1 379/7/1 380/5/1
f 381/14/1 382/15/1 383/9/1 384/7/1
f 385/16/1 386/17/1 387/12/1 388/11/1
f 389/17/1 390/18/1 391/13/1 392/12/1
f 393/18/1 394/19/1 395/14/1 396/13/1
f 397/19/1 398/20/1 399/15/1 400/14/1
f 401/16/1 402/17/1 403/12/1 404/11/1
f 405/17/1 406/18/1 407/13/1 408/12/1
f 409/18/1 410/19/1 411/14/1 412/13/1
f 413/19/1 414/20/1 415/15/1 416/14/1
f 417/21/1 418/22/1 419/17/1 420/16/1
f 421/22/1 422/23/1 423/18/1 424/17/1
f 425/23/1 426/24/1 427/19/1 428/18/1
f 429/24/1 430/25/1 431/20/1 432/19/1
f 433/21/1 434/22/1 435/17/1 436/16/1
f 437/22/1 438/23/1 439/18/1 440/17/1
f 441/23/1 442/24/1 443/19/1 444/18/1
f 445/24/1 446/25/1 447/20/1 448/19/1
f 449/26/1 450/27/1 451/22/1 452/21/1
f 453/27/1 454/28/1 455/23/1 456/22/1
f 457/28/1 458/29/1 459/24/1 460/23/1
f 461/29/1 462/30/1 463/25/1 464/24/1
f 465/26/1 466/27/1 467/22/1 468/21/1
f 469/27/1 470/28/1 471/23/1 472/22/1
f 473/28/1 474/29/1 475/24/1 476/23/1
f 477/29/1 478/30/1 479/25/1 480/24/1
f 481/1/1 482/2/1 483/3/1 484/4/1
f 485/2/1 486/5/1 487/6/1 488/3/1
f 489/5/1 490/7/1 491/8/1 492/6/1
f 493/7/1 494/9/1 495/10/1 496/8/1
f 497/1/1 498/2/1 499/3/1 500/4/1
f 501/2/1 502/5/1 503/6/1 504/3/1
f 505/5/1 506/7/1 507/8/1 508/6/1
f 509/7/1 510/9/1 511/10/1 512/8/1
f 513/1/1 514/2/1 515/3/1 516/4/1
f 517/2/1 518/5/1 519/6/1 520/3/1
f 521/5/1 522/7/1 523/8/1 524/6/1
f 525/7/1 526/9/1 527/10/1 528/8/1
f 529/1/1 530/2/1 531/3/1 532/4/1
f 533/2/1 534/5/1 535/6/1 536/3/1
f 537/5/1 538/7/1 539/8/1 540/6/1
f 541/7/1 542/9/1 543/10/1 544/8/1
f 545/11/1 546/12/1 547/2/1 548/1/1
f 549/12/1 550/13/1 551/5/1 552/2/1
f 553/13/1 554/14/1 555/7/1 556/5/1
f 557/14/1 558/15/1 559/9/1 560/7/1
f 561/11/1 562/12/1 563/2/1 564/1/1
f 565/12/1 566/13/1 567/5/1 568/2/1
f 569/13/1 570/14/1 571/7/1 572/5/1
f 573/14/1 574/15/1 575/9/1 576/7/1
f 577/11/1 578/12/1 579/2/1 580/1/1
f 581/12/1 582/13/1 583/5/1 584/2/1
f 585/13/1 586/14/1 587/7/1 588/5/1
f 589/14/1 590/15/1 591/9/1 592/7/1
f 593/11/1 594/12/1 595/2/1 596/1/1
f 597/12/1 598/13/1 599/5/1 600/2/1
f 601/13/1 602/14/1 603/7/1 604/5/1
f 605/14/1 606/15/1 607/9/1 608/7/1
f 609/16/1 610/17/1 611/12/1 612/11/1
f 613/17/1 614/18/1 615/13/1 616/12/1
f 617/18/1 618/19/1 619/14/1 620/13/1
f 621/19/1 622/20/1 623/15/1 624/14/1
f 625/16/1 626/17/1 627/12/1 628/11/1
f 629/17/1 630/18/1 631/13/1 632/12/1
f 633/18/1 634/19/1 635/14/1 636/13/1
f 637/19/1 638/20/1 639/15/1 640/14/1
f 641/16/1 642/17/1 643/12/1 644/11/1
f 645/17/1 646/18/1 647/13/1 648/12/1
f 649/18/1 650/19/1 651/14/1 652/13/1
f 653/19/1 654/20/1 655/15/1 656/14/1
f 657/16/1 658/17/1 659/12/1 660/11/1
f 661/17/1 662/18/1 663/13/1 664/12/1
f 665/18/1 666/19/1 667/14/1 668/13/1
f 669/19/1 670/20/1 671/15/1 672/14/1
f 673/21/1 674/22/1 675/17/1 676/16/1
f 677/22/1 678/23/1 679/18/1 680/17/1
f 681/23/1 682/24/1 683/19/1 684/18/1
f 685/24/1 686/25/1 687/20/1 688/19/1
f 689/21/1 690/22/1 691/17/1 692/16/1
f 693/22/1 694/23/1 695/18/1 696/17/1
f 697/23/1 698/24/1 699/19/1 700/18/1
f 701/24/1 702/25/1 703/20/1 704/19/1
f 705/21/1 706/22/1 707/17/1 708/16/1
f 709/22/1 710/23/1 711/18/1 712/17/1
f 713/23/1 714/24/1 715/19/1 716/18/1
f 717/24/1 718/25/1 719/20/1 720/19/1
f 721/21/1 722/22/1 723/17/1 724/16/1
f 725/22/1 726/23/1 727/18/1 728/17/1
f 729/23/1 730/24/1 731/19/1 732/18/1
f 733/24/1 734/25/1 735/20/1 736/19/1
f 737/26/1 738/27/1 739/22/1 740/21/1
f 741/27/1 742/28/1 743/23/1 744/22/1
f 745/28/1 746/29/1 747/24/1 748/23/1
f 749/29/1 750/30/1 751/25/1 752/24/1
f 753/26/1 754/27/1 755/22/1 756/21/1
f 757/27/1 758/28/1 759/23/1 760/22/1
f 761/28/1 762/29/1 763/24/1 764/23/1
f 765/29/1 766/30/1 767/25/1 768/24/1
f 769/26/1 770/27/1 771/22/1 772/21/1
f 773/27/1 774/28/1 775/23/1 776/22/1
f 777/28/1 778/29/1 779/24/1 780/23/1
f 781/29/1 782/30/1 783/25/1 784/24/1
f 785/26/1 786/27/1 787/22/1 788/21/1
f 789/27/1 790/28/1 791/23/1 792/22/1
f 793/28/1 794/29/1 795/24/1 796/23/1
f 797/29/1 798/30/1 799/25/1 800/24/1
f 801/1/1 802/2/1 803/3/1 804/4/1
f 805/2/1 806/5/1 807/6/1 808/3/1
f 809/5/1 810/7/1 811/8/1 812/6/1
f 813/7/1 814/9/1 815/10/1 816/8/1
f 817/11/1 818/12/1 819/2/1 820/1/1
f 821/12/1 822/13/1 823/5/1 824/2/1
f 825/13/1 826/14/1 827/7/1 828/5/1
f 829/14/1 830/15/1 831/9/1 832/7/1
f 833/16/1 834/17/1 835/12/1 836/11/1
f 837/17/1 838/18/1 839/13/1 840/12/1
f 841/18/1 842/19/1 843/14/1 844/13/1
f 845/19/1 846/20/1 847/15/1 848/14/1
f 849/21/1 850/22/1 851/17/1 852/16/1
f 853/22/1 854/23/1 855/18/1 856/17/1
f 857/23/1 858/24/1 859/19/1 860/18/1
f 861/24/1 862/25/1 863/20/1 864/19/1
f 865/26/1 866/27/1 867/22/1 868/21/1
f 869/27/1 870/28/1 871/23/1 872/22/1
f 873/28/1 874/29/1 875/24/1 876/23/1
f 877/29/1 878/30/1 879/25/1 880/24/1

