# Tiled2Unity generated file. Do not modify by hand.
# Wavefront file for 'GameMap1_0_mesh_0021.obj'

# Vertices (Count = 280)
v -1760 -4736 0
v -1792 -4736 0
v -1792 -4704 0
v -1760 -4704 0
v -1792 -4736 0
v -1824 -4736 0
v -1824 -4704 0
v -1792 -4704 0
v -1824 -4736 0
v -1856 -4736 0
v -1856 -4704 0
v -1824 -4704 0
v -1856 -4736 0
v -1888 -4736 0
v -1888 -4704 0
v -1856 -4704 0
v -1888 -4736 0
v -1920 -4736 0
v -1920 -4704 0
v -1888 -4704 0
v -1920 -4736 0
v -1952 -4736 0
v -1952 -4704 0
v -1920 -4704 0
v -1952 -4736 0
v -1984 -4736 0
v -1984 -4704 0
v -1952 -4704 0
v -1984 -4736 0
v -2016 -4736 0
v -2016 -4704 0
v -1984 -4704 0
v -2016 -4736 0
v -2048 -4736 0
v -2048 -4704 0
v -2016 -4704 0
v -2048 -4736 0
v -2080 -4736 0
v -2080 -4704 0
v -2048 -4704 0
v -2080 -4736 0
v -2112 -4736 0
v -2112 -4704 0
v -2080 -4704 0
v -2112 -4736 0
v -2144 -4736 0
v -2144 -4704 0
v -2112 -4704 0
v -2144 -4736 0
v -2176 -4736 0
v -2176 -4704 0
v -2144 -4704 0
v -1472 -4768 0
v -1504 -4768 0
v -1504 -4736 0
v -1472 -4736 0
v -1504 -4768 0
v -1536 -4768 0
v -1536 -4736 0
v -1504 -4736 0
v -1536 -4768 0
v -1568 -4768 0
v -1568 -4736 0
v -1536 -4736 0
v -1568 -4768 0
v -1600 -4768 0
v -1600 -4736 0
v -1568 -4736 0
v -1600 -4768 0
v -1632 -4768 0
v -1632 -4736 0
v -1600 -4736 0
v -1632 -4768 0
v -1664 -4768 0
v -1664 -4736 0
v -1632 -4736 0
v -1664 -4768 0
v -1696 -4768 0
v -1696 -4736 0
v -1664 -4736 0
v -1696 -4768 0
v -1728 -4768 0
v -1728 -4736 0
v -1696 -4736 0
v -1728 -4768 0
v -1760 -4768 0
v -1760 -4736 0
v -1728 -4736 0
v -1760 -4768 0
v -1792 -4768 0
v -1792 -4736 0
v -1760 -4736 0
v -1792 -4768 0
v -1824 -4768 0
v -1824 -4736 0
v -1792 -4736 0
v -1824 -4768 0
v -1856 -4768 0
v -1856 -4736 0
v -1824 -4736 0
v -1856 -4768 0
v -1888 -4768 0
v -1888 -4736 0
v -1856 -4736 0
v -1888 -4768 0
v -1920 -4768 0
v -1920 -4736 0
v -1888 -4736 0
v -1920 -4768 0
v -1952 -4768 0
v -1952 -4736 0
v -1920 -4736 0
v -1952 -4768 0
v -1984 -4768 0
v -1984 -4736 0
v -1952 -4736 0
v -1984 -4768 0
v -2016 -4768 0
v -2016 -4736 0
v -1984 -4736 0
v -2016 -4768 0
v -2048 -4768 0
v -2048 -4736 0
v -2016 -4736 0
v -2048 -4768 0
v -2080 -4768 0
v -2080 -4736 0
v -2048 -4736 0
v -2080 -4768 0
v -2112 -4768 0
v -2112 -4736 0
v -2080 -4736 0
v -2112 -4768 0
v -2144 -4768 0
v -2144 -4736 0
v -2112 -4736 0
v -2144 -4768 0
v -2176 -4768 0
v -2176 -4736 0
v -2144 -4736 0
v -1472 -4800 0
v -1504 -4800 0
v -1504 -4768 0
v -1472 -4768 0
v -1504 -4800 0
v -1536 -4800 0
v -1536 -4768 0
v -1504 -4768 0
v -1536 -4800 0
v -1568 -4800 0
v -1568 -4768 0
v -1536 -4768 0
v -1568 -4800 0
v -1600 -4800 0
v -1600 -4768 0
v -1568 -4768 0
v -1600 -4800 0
v -1632 -4800 0
v -1632 -4768 0
v -1600 -4768 0
v -1632 -4800 0
v -1664 -4800 0
v -1664 -4768 0
v -1632 -4768 0
v -1664 -4800 0
v -1696 -4800 0
v -1696 -4768 0
v -1664 -4768 0
v -1696 -4800 0
v -1728 -4800 0
v -1728 -4768 0
v -1696 -4768 0
v -1728 -4800 0
v -1760 -4800 0
v -1760 -4768 0
v -1728 -4768 0
v -1760 -4800 0
v -1792 -4800 0
v -1792 -4768 0
v -1760 -4768 0
v -1792 -4800 0
v -1824 -4800 0
v -1824 -4768 0
v -1792 -4768 0
v -1824 -4800 0
v -1856 -4800 0
v -1856 -4768 0
v -1824 -4768 0
v -1856 -4800 0
v -1888 -4800 0
v -1888 -4768 0
v -1856 -4768 0
v -1888 -4800 0
v -1920 -4800 0
v -1920 -4768 0
v -1888 -4768 0
v -1920 -4800 0
v -1952 -4800 0
v -1952 -4768 0
v -1920 -4768 0
v -1952 -4800 0
v -1984 -4800 0
v -1984 -4768 0
v -1952 -4768 0
v -1984 -4800 0
v -2016 -4800 0
v -2016 -4768 0
v -1984 -4768 0
v -2016 -4800 0
v -2048 -4800 0
v -2048 -4768 0
v -2016 -4768 0
v -2048 -4800 0
v -2080 -4800 0
v -2080 -4768 0
v -2048 -4768 0
v -2080 -4800 0
v -2112 -4800 0
v -2112 -4768 0
v -2080 -4768 0
v -2112 -4800 0
v -2144 -4800 0
v -2144 -4768 0
v -2112 -4768 0
v -2144 -4800 0
v -2176 -4800 0
v -2176 -4768 0
v -2144 -4768 0
v -1472 -4832 0
v -1504 -4832 0
v -1504 -4800 0
v -1472 -4800 0
v -1504 -4832 0
v -1536 -4832 0
v -1536 -4800 0
v -1504 -4800 0
v -1536 -4832 0
v -1568 -4832 0
v -1568 -4800 0
v -1536 -4800 0
v -1568 -4832 0
v -1600 -4832 0
v -1600 -4800 0
v -1568 -4800 0
v -1600 -4832 0
v -1632 -4832 0
v -1632 -4800 0
v -1600 -4800 0
v -1632 -4832 0
v -1664 -4832 0
v -1664 -4800 0
v -1632 -4800 0
v -1664 -4832 0
v -1696 -4832 0
v -1696 -4800 0
v -1664 -4800 0
v -1696 -4832 0
v -1728 -4832 0
v -1728 -4800 0
v -1696 -4800 0
v -1728 -4832 0
v -1760 -4832 0
v -1760 -4800 0
v -1728 -4800 0
v -1760 -4832 0
v -1792 -4832 0
v -1792 -4800 0
v -1760 -4800 0
v -1792 -4832 0
v -1824 -4832 0
v -1824 -4800 0
v -1792 -4800 0
v -1824 -4832 0
v -1856 -4832 0
v -1856 -4800 0
v -1824 -4800 0
v -1856 -4832 0
v -1888 -4832 0
v -1888 -4800 0
v -1856 -4800 0

# Texture cooridinates (Count = 20)
vt 0.1272366 0.6911197
vt 0.1908549 0.6911197
vt 0.1908549 0.7528958
vt 0.1272366 0.7528958
vt 0.2544731 0.6911197
vt 0.2544731 0.7528958
vt 0.3180915 0.6911197
vt 0.3180915 0.7528958
vt 0.3817098 0.6911197
vt 0.3817098 0.7528958
vt 0.3180915 0.6293436
vt 0.3817098 0.6293436
vt 0.1272366 0.6293436
vt 0.1908549 0.6293436
vt 0.2544731 0.6293436
vt 0.3180915 0.5675676
vt 0.3817098 0.5675676
vt 0.1272366 0.5675676
vt 0.1908549 0.5675676
vt 0.2544731 0.5675676

# Normal
vn 0 0 -1

# Mesh description
g GameMap1_0_mesh_0021

# Faces
f 1/1/1 2/2/1 3/3/1 4/4/1
f 5/2/1 6/5/1 7/6/1 8/3/1
f 9/5/1 10/7/1 11/8/1 12/6/1
f 13/7/1 14/9/1 15/10/1 16/8/1
f 17/7/1 18/9/1 19/10/1 20/8/1
f 21/7/1 22/9/1 23/10/1 24/8/1
f 25/7/1 26/9/1 27/10/1 28/8/1
f 29/7/1 30/9/1 31/10/1 32/8/1
f 33/7/1 34/9/1 35/10/1 36/8/1
f 37/7/1 38/9/1 39/10/1 40/8/1
f 41/7/1 42/9/1 43/10/1 44/8/1
f 45/7/1 46/9/1 47/10/1 48/8/1
f 49/7/1 50/9/1 51/10/1 52/8/1
f 53/1/1 54/2/1 55/3/1 56/4/1
f 57/1/1 58/2/1 59/3/1 60/4/1
f 61/2/1 62/5/1 63/6/1 64/3/1
f 65/5/1 66/7/1 67/8/1 68/6/1
f 69/7/1 70/9/1 71/10/1 72/8/1
f 73/7/1 74/9/1 75/10/1 76/8/1
f 77/7/1 78/9/1 79/10/1 80/8/1
f 81/7/1 82/9/1 83/10/1 84/8/1
f 85/7/1 86/9/1 87/10/1 88/8/1
f 89/7/1 90/9/1 91/10/1 92/8/1
f 93/7/1 94/9/1 95/10/1 96/8/1
f 97/7/1 98/9/1 99/10/1 100/8/1
f 101/7/1 102/9/1 103/10/1 104/8/1
f 105/11/1 106/12/1 107/9/1 108/7/1
f 109/11/1 110/12/1 111/9/1 112/7/1
f 113/11/1 114/12/1 115/9/1 116/7/1
f 117/11/1 118/12/1 119/9/1 120/7/1
f 121/11/1 122/12/1 123/9/1 124/7/1
f 125/11/1 126/12/1 127/9/1 128/7/1
f 129/11/1 130/12/1 131/9/1 132/7/1
f 133/11/1 134/12/1 135/9/1 136/7/1
f 137/11/1 138/12/1 139/9/1 140/7/1
f 141/13/1 142/14/1 143/2/1 144/1/1
f 145/13/1 146/14/1 147/2/1 148/1/1
f 149/14/1 150/15/1 151/5/1 152/2/1
f 153/15/1 154/11/1 155/7/1 156/5/1
f 157/11/1 158/12/1 159/9/1 160/7/1
f 161/11/1 162/12/1 163/9/1 164/7/1
f 165/11/1 166/12/1 167/9/1 168/7/1
f 169/11/1 170/12/1 171/9/1 172/7/1
f 173/11/1 174/12/1 175/9/1 176/7/1
f 177/11/1 178/12/1 179/9/1 180/7/1
f 181/11/1 182/12/1 183/9/1 184/7/1
f 185/11/1 186/12/1 187/9/1 188/7/1
f 189/11/1 190/12/1 191/9/1 192/7/1
f 193/16/1 194/17/1 195/12/1 196/11/1
f 197/16/1 198/17/1 199/12/1 200/11/1
f 201/16/1 202/17/1 203/12/1 204/11/1
f 205/16/1 206/17/1 207/12/1 208/11/1
f 209/16/1 210/17/1 211/12/1 212/11/1
f 213/16/1 214/17/1 215/12/1 216/11/1
f 217/16/1 218/17/1 219/12/1 220/11/1
f 221/16/1 222/17/1 223/12/1 224/11/1
f 225/16/1 226/17/1 227/12/1 228/11/1
f 229/18/1 230/19/1 231/14/1 232/13/1
f 233/18/1 234/19/1 235/14/1 236/13/1
f 237/19/1 238/20/1 239/15/1 240/14/1
f 241/20/1 242/16/1 243/11/1 244/15/1
f 245/16/1 246/17/1 247/12/1 248/11/1
f 249/16/1 250/17/1 251/12/1 252/11/1
f 253/16/1 254/17/1 255/12/1 256/11/1
f 257/16/1 258/17/1 259/12/1 260/11/1
f 261/16/1 262/17/1 263/12/1 264/11/1
f 265/16/1 266/17/1 267/12/1 268/11/1
f 269/16/1 270/17/1 271/12/1 272/11/1
f 273/16/1 274/17/1 275/12/1 276/11/1
f 277/16/1 278/17/1 279/12/1 280/11/1

